# xmcd
#
# Track frame offsets:
#	150
#	16286
#	31619
#	48067
#	63320
#	82511
#	99029
#	116598
#	134747
#	150229
#	164363
#	180178
#	197419
#	209527
#	226194
#	239930
#
# Disc length: 3422 seconds
#
# Revision: 1
# Processed by: cddbd v1.5.2PL0 Copyright (c) Steve Scherf et al.
# Submitted via: audiograbber 1.83.01
#
DISCID=b60d5c10
DTITLE=Shania Twain - Now
DYEAR=2017
DGENRE=Country
TTITLE0=Swingin' With My Eyes Closed
TTITLE1=Home Now
TTITLE2=Light Of My Life
TTITLE3=Poor Me
TTITLE4=Who's Gonna Be Your Girl
TTITLE5=More Fun
TTITLE6=I'm Alright
TTITLE7=Let's Kiss And Make Up
TTITLE8=Where Do You Think You're Going
TTITLE9=Roll Me On The River
TTITLE10=We Got Something They Don't
TTITLE11=Because Of You
TTITLE12=You Can't Buy Love
TTITLE13=Life's About To Get Good
TTITLE14=Soldier
TTITLE15=All In All
EXTD=
EXTT0=
EXTT1=
EXTT2=
EXTT3=
EXTT4=
EXTT5=
EXTT6=
EXTT7=
EXTT8=
EXTT9=
EXTT10=
EXTT11=
EXTT12=
EXTT13=
EXTT14=
EXTT15=
PLAYORDER=
